<?xml version="1.0" encoding="UTF-8"?> <svg xmlns="http://www.w3.org/2000/svg" xmlns:xlink="http://www.w3.org/1999/xlink" width="118" height="51" viewBox="0 0 118 51"><defs><path id="a" d="M3.098 9.378l15.423-6.452a5.045 5.045 0 0 1 6.993 4.654v35.417a5.045 5.045 0 0 1-7.22 4.552L3.826 40.636A6.727 6.727 0 0 1 0 34.566V14.034a5.045 5.045 0 0 1 3.098-4.655z"></path></defs><g fill="none" fill-rule="evenodd"><path fill="#185597" fill-rule="nonzero" d="M0 14.01v23.392h13.889l.048-1.976H2.54V14.01H0zm18.158 13.383c.161-1.8.729-3.232 1.704-4.298.975-1.066 2.224-1.599 3.746-1.599 2.914 0 4.404 1.966 4.468 5.897h-9.918zm-.064 1.622h11.895l.075-.794.022-.25c.021-.257.032-.45.032-.578 0-2.41-.587-4.303-1.76-5.68-1.174-1.376-2.784-2.064-4.83-2.064a7.516 7.516 0 0 0-3.03.618 7.685 7.685 0 0 0-2.509 1.751c-.723.756-1.294 1.714-1.711 2.876-.418 1.162-.627 2.45-.627 3.864 0 1.36.209 2.606.627 3.736.417 1.13.99 2.075 1.72 2.835a7.642 7.642 0 0 0 2.58 1.767c.99.418 2.06.627 3.206.627 2.197 0 4.148-.546 5.852-1.639l-.595-1.655h-.193c-.857.482-1.64.844-2.347 1.085-.707.24-1.511.361-2.411.361-1.726 0-3.13-.567-4.212-1.703-1.082-1.135-1.677-2.854-1.784-5.157zm16.165 8.387h2.411v-10.01c0-.803.1-1.547.298-2.233.198-.685.5-1.309.908-1.871.407-.563.97-1.004 1.688-1.326.718-.321 1.553-.482 2.507-.482 1.33 0 2.267.437 2.813 1.31.547.873.82 2.112.82 3.719v10.893h2.411V26.927c0-2.421-.46-4.24-1.382-5.455-.922-1.215-2.347-1.823-4.276-1.823-2.947 0-4.924 1.226-5.932 3.679l-.273-3.31H34.26v17.384zm25.536-1.527c-1.703 0-2.995-.64-3.874-1.92-.878-1.28-1.318-3.065-1.318-5.357 0-2.228.445-3.971 1.335-5.23.889-1.258 2.186-1.888 3.89-1.888 1.05 0 1.998.214 2.845.643a4.705 4.705 0 0 1 1.977 1.848v9.687c-1.029 1.478-2.647 2.217-4.855 2.217zm-.128 1.848c.964 0 1.915-.195 2.853-.586a6.037 6.037 0 0 0 2.339-1.695l.16 1.96h2.042V13.984H64.57v4.797l.08 2.908c-1.097-1.28-2.605-1.949-4.526-2.004l-.425-.004c-2.336 0-4.182.809-5.538 2.426-1.355 1.617-2.033 3.791-2.033 6.523 0 2.784.659 4.996 1.977 6.635 1.318 1.639 3.172 2.458 5.562 2.458z"></path><g transform="translate(71.176)"><mask id="b" fill="#fff"><use xlink:href="#a"></use></mask><use fill="#008D6A" xlink:href="#a"></use><path fill="#FFF" fill-rule="nonzero" d="M21.867 25.551l7.909 11.89h-5.707l-5.433-8.162-5.417 8.161H7.834l8.085-12.258-7.458-11.198h5.706l4.983 7.487 4.726-7.487h5.594z" mask="url(#b)"></path><path fill="#185597" fill-rule="nonzero" d="M38.004 14.125c1.96 0 3.627.389 4.999 1.165 1.372.777 2.336 1.7 2.893 2.771l-3.311 1.912h-.338a4.168 4.168 0 0 0-1.712-1.719c-.744-.407-1.508-.61-2.29-.61-.965 0-1.758.211-2.38.634-.62.423-.932 1.09-.932 2 0 .729.204 1.283.611 1.663.378.353 1.09.746 2.133 1.177l3.156 1.273c.771.311 1.417.598 1.937.86s1.031.586 1.535.972.898.803 1.181 1.253c.284.45.515.996.692 1.639.177.643.265 1.37.265 2.185 0 1.135-.22 2.147-.66 3.036a5.723 5.723 0 0 1-1.816 2.161c-.771.552-1.66.967-2.668 1.245-1.007.279-2.1.418-3.28.418-2.025 0-3.747-.37-5.167-1.109s-2.494-1.633-3.223-2.683l3.086-2.393h.418c.568.674 1.283 1.247 2.146 1.719.863.47 1.712.707 2.548.707 1.05 0 1.88-.22 2.491-.66.611-.438.917-1.134.917-2.088 0-.814-.217-1.448-.651-1.904-.434-.455-1.343-.966-2.725-1.534l-3.504-1.43c-.761-.31-1.396-.624-1.905-.94a6.683 6.683 0 0 1-1.399-1.164 4.356 4.356 0 0 1-.94-1.647c-.204-.637-.305-1.384-.305-2.241 0-1.179.22-2.21.659-3.093.44-.884 1.045-1.58 1.816-2.089a8.4 8.4 0 0 1 2.588-1.124c.954-.241 1.999-.362 3.135-.362z"></path></g></g></svg> 